<svg width="120" height="120" viewBox="0 0 120 120" fill="none" xmlns="http://www.w3.org/2000/svg">
<mask id="mask0" mask-type="alpha" maskUnits="userSpaceOnUse" x="10" y="81" width="28" height="29">
<path fill-rule="evenodd" clip-rule="evenodd" d="M10 81.6921H37.7711V110H10V81.6921Z" fill="white"/>
</mask>
<g mask="url(#mask0)">
<path fill-rule="evenodd" clip-rule="evenodd" d="M35.7311 81.6921C32.5058 84.8006 8.37459 108.18 10.0863 109.913C11.7577 111.603 33.8477 88.2331 37.771 84.0547C37.3676 83.875 36.9875 83.622 36.657 83.2875C36.2032 82.8271 35.8944 82.2761 35.7311 81.6921Z" fill="#2B3237"/>
</g>
<path fill-rule="evenodd" clip-rule="evenodd" d="M38.9754 75.7223L36.6577 78.066C35.6879 79.0485 35.3804 80.4449 35.7318 81.6921C35.8952 82.276 36.2039 82.8271 36.6577 83.2875C36.9883 83.622 37.3684 83.875 37.7718 84.0546C39.109 84.6478 40.7237 84.3948 41.818 83.2875L43.8927 81.1873C43.0046 80.6711 41.9321 80.0311 41.1731 79.2631C40.1363 78.2152 39.5616 77.0113 38.9754 75.7223Z" fill="#3582BD"/>
<path fill-rule="evenodd" clip-rule="evenodd" d="M94.9058 22.0667L90.728 26.2788L93.6408 29.2264L93.9103 29.4979L98.0872 25.2858L94.9058 22.0667Z" fill="#E0DCD3"/>
<path fill-rule="evenodd" clip-rule="evenodd" d="M89.5664 36.7193C89.958 37.1155 89.958 37.7579 89.5664 38.1554C89.1748 38.5516 88.5391 38.5516 88.1475 38.1554L86.5024 36.491L82.4974 40.5295L84.1481 42.2007C84.5409 42.5969 84.5409 43.2393 84.1481 43.6368C83.7565 44.033 83.122 44.033 82.7301 43.6368L81.0761 41.9629L76.6843 46.3931L78.345 48.0738C78.7366 48.4701 78.7366 49.1134 78.3439 49.5096C77.9534 49.9059 77.3177 49.9059 76.9261 49.5096L75.2627 47.8268L71.5241 51.8348L75.7201 56.081C76.4723 56.8421 76.2361 57.8384 75.4839 58.5995C74.9195 59.1706 74.3286 59.0751 73.633 58.7896L56.3782 76.489C56.3667 76.5007 56.3552 76.509 56.3437 76.5195C56.3243 76.5403 56.3057 76.5612 56.2862 76.5824C52.9872 79.9191 47.6394 79.9191 44.3404 76.5824C41.228 73.4331 40.9343 68.3211 43.6955 64.9632C43.9417 64.7138 44.1136 64.5389 44.3404 64.3095L61.8092 46.8723C61.4798 46.1508 61.6066 45.2694 62.194 44.6751C62.9462 43.9139 63.9311 44.1529 64.683 44.9141L68.8092 48.8499L72.5479 45.0797L70.6843 43.1937C70.2927 42.7974 70.2927 42.1553 70.6843 41.7579C71.0759 41.3617 71.7116 41.3617 72.1032 41.7579L73.9694 43.646L78.3613 39.2158L76.4882 37.3208C76.0966 36.9246 76.0966 36.2822 76.4882 35.8847C76.881 35.4885 77.5159 35.4885 77.9075 35.8847L79.7825 37.7836L83.7887 33.7439L81.9065 31.8394C81.5149 31.4432 81.5137 30.8008 81.9065 30.4033C82.2984 30.0071 82.933 30.0071 83.3246 30.4033L85.2091 32.3102L90.7182 26.2786L93.6415 29.2263L86.3169 21.8147C84.8921 20.373 82.5827 20.373 81.1578 21.8147L41.1729 62.2746C40.855 62.5962 40.6568 62.7967 40.2697 63.1882C37.313 66.7839 36.8533 71.8129 38.7402 75.96C39.3264 77.249 40.1361 78.4541 41.1729 79.502C41.9319 80.27 42.7693 80.9088 43.6574 81.425C48.1876 84.059 54.0688 83.4193 57.9402 79.502C57.9691 79.4728 57.9944 79.4438 58.023 79.4146C58.0381 79.3994 58.0543 79.3865 58.0705 79.3713L98.0543 38.9117C99.4791 37.47 99.4791 35.1331 98.0543 33.6914L93.674 29.2588L87.924 35.0574L89.5664 36.7193Z" fill="#87CED9"/>
<path fill-rule="evenodd" clip-rule="evenodd" d="M61.9579 47.4327C61.7922 47.265 61.6654 47.075 61.5731 46.8724L44.3404 64.3095C44.1134 64.539 43.9406 64.7138 43.6944 64.9633C40.9332 68.3212 41.2269 73.4332 44.3404 76.5825C47.6383 79.9192 52.9861 79.9192 56.2851 76.5825C56.3046 76.5613 56.3232 76.5404 56.3426 76.5195C56.3541 76.5091 56.3656 76.4995 56.3771 76.4891L73.633 59.0287C73.4004 58.9329 73.1825 58.7909 72.9938 58.5996L61.9579 47.4327Z" fill="#E0DCD3"/>
<path fill-rule="evenodd" clip-rule="evenodd" d="M109.525 27.9502L92.6979 10.923C91.5264 9.73754 89.6778 9.68771 88.5673 10.8099L88.0652 11.318C86.9558 12.4417 87.0054 14.3125 88.1769 15.4976L94.9038 22.3044L96.5899 24.0117L98.0852 25.5235L105.004 32.5248C106.176 33.71 108.024 33.7601 109.135 32.6376L109.637 32.1295C110.746 31.0061 110.697 29.1353 109.525 27.9502Z" fill="#2B3237"/>
<path fill-rule="evenodd" clip-rule="evenodd" d="M79.5483 37.5447L82.7344 40.7683L86.7394 36.7298L83.5536 33.505L79.5483 37.5447Z" fill="#3582BD"/>
<path fill-rule="evenodd" clip-rule="evenodd" d="M73.7329 43.4071L76.9199 46.6322L81.312 42.202L78.1247 38.9781L73.7329 43.4071Z" fill="#3582BD"/>
<path fill-rule="evenodd" clip-rule="evenodd" d="M71.7595 51.8349L75.4985 48.0659L72.3112 44.8408L68.5725 48.6113L64.6826 44.6752C63.9306 43.914 62.7107 43.914 61.9574 44.6752C61.3711 45.2695 61.2443 46.1509 61.5737 46.8724C61.666 47.075 61.7928 47.265 61.9585 47.4327L72.9944 58.5996C73.1831 58.7909 73.401 58.9329 73.6337 59.0287C74.3281 59.313 75.1552 59.1707 75.7196 58.5996C76.4718 57.8385 76.4718 56.6044 75.7196 55.842L71.7595 51.8349Z" fill="#3582BD"/>
<path fill-rule="evenodd" clip-rule="evenodd" d="M93.6401 29.2264L90.7168 26.2787L84.9727 32.0725L88.1596 35.2965L93.9088 29.4979H93.9096L93.6401 29.2264Z" fill="#3582BD"/>
<path fill-rule="evenodd" clip-rule="evenodd" d="M72.1023 41.7581C71.7107 41.3618 71.0749 41.3618 70.6833 41.7581C70.2918 42.1555 70.2918 42.7976 70.6833 43.1938L75.4968 48.0659L76.9252 49.5098C77.3168 49.906 77.9514 49.906 78.3429 49.5098C78.7357 49.1135 78.7357 48.4702 78.3441 48.074L72.1023 41.7581Z" fill="#E0DCD3"/>
<path fill-rule="evenodd" clip-rule="evenodd" d="M77.9063 35.8848C77.5147 35.4886 76.8798 35.4886 76.4871 35.8848C76.0955 36.2823 76.0955 36.9247 76.4871 37.3209L78.1239 38.9781L81.3112 42.202L82.7289 43.6368C83.1208 44.0331 83.7565 44.0331 84.1481 43.6356C84.5397 43.2394 84.5397 42.597 84.1481 42.2008L79.5464 37.5435L77.9063 35.8848Z" fill="#E0DCD3"/>
<path fill-rule="evenodd" clip-rule="evenodd" d="M81.9064 30.4034C81.5137 30.7996 81.5148 31.4432 81.9064 31.8394L83.5527 33.505L88.1474 38.1554C88.5402 38.5516 89.1747 38.5516 89.5663 38.1554C89.9579 37.758 89.9579 37.1156 89.5663 36.7193L84.974 32.0725L83.3257 30.4034C82.9329 30.0071 82.2983 30.0071 81.9064 30.4034Z" fill="#E0DCD3"/>
</svg>
