<svg width="97" height="104" viewBox="0 0 97 104" fill="none" xmlns="http://www.w3.org/2000/svg">
<path fill-rule="evenodd" clip-rule="evenodd" d="M64.2665 58.0015C62.0466 63.8243 62.6159 70.3499 63.1656 76.6596C63.7907 83.8237 64.3811 90.59 60.5796 94.8599C57.5771 98.2325 51.9401 100.012 43.3463 100.301C34.8289 100.586 28.9135 98.7101 25.7665 94.7248C20.0865 87.5303 23.8104 74.2321 26.2755 65.432C27.0732 62.581 27.7179 60.2785 28.005 58.4804C27.6178 58.4986 27.2272 58.5111 26.8302 58.5111C26.0104 58.5099 25.213 58.4643 24.4326 58.387C24.1284 59.9973 23.5119 62.198 22.871 64.4869C20.2146 73.9707 16.2011 88.3035 22.988 96.8997C26.6317 101.515 32.9232 103.848 41.7079 103.848C42.2826 103.848 42.8692 103.838 43.4659 103.817C53.0805 103.495 59.5443 101.328 63.2249 97.1944C68.032 91.7927 67.3479 83.9453 66.6862 76.3555C65.8036 66.2225 64.9604 56.5546 75.179 50.7862C74.4431 49.8754 73.8379 48.858 73.3879 47.7583C68.9269 50.2901 65.9144 53.6803 64.2665 58.0015Z" fill="#2B3237"/>
<path fill-rule="evenodd" clip-rule="evenodd" d="M27.832 58.4103C38.1023 57.907 44.9385 51.0499 45.6706 47.6575C41.2541 51.0954 35.558 52.9866 28.691 53.2911C28.4704 53.3388 28.2435 53.3646 28.0106 53.3671C27.8948 53.3684 27.7777 53.3684 27.6619 53.3684C19.3405 53.3684 12.6138 51.18 7.665 46.8622C7.64638 46.8475 7.63029 46.8302 7.61293 46.8157C7.58706 46.9003 7.57349 46.9911 7.57349 47.0916C7.57349 50.0938 14.0808 57.2984 24.2596 58.317C25.0387 58.3943 25.8361 58.4399 26.6572 58.4411C27.0542 58.4411 27.4448 58.4285 27.832 58.4103Z" fill="#C3BFB8"/>
<path fill-rule="evenodd" clip-rule="evenodd" d="M4.3884 27.4987C4.36599 27.0114 4.3499 26.5231 4.3499 26.0295C4.3499 18.1956 7.39089 9.97583 13.1201 6.8351C12.234 6.23749 11.6152 5.23959 11.4981 4.08459C9.24224 5.37093 7.24068 7.31645 5.6099 9.85581C2.80684 14.2238 1.26221 19.9677 1.26221 26.0295C1.26221 26.7795 1.28934 27.5207 1.33636 28.256C1.83052 27.8227 2.4408 27.5245 3.12618 27.4287C3.56101 27.3687 3.98512 27.3994 4.3884 27.4987Z" fill="#2B3237"/>
<mask id="mask0" mask-type="alpha" maskUnits="userSpaceOnUse" x="0" y="3" width="55" height="51">
<path fill-rule="evenodd" clip-rule="evenodd" d="M0.019043 3.98782H54.8052V53.2766H0.019043V3.98782Z" fill="white"/>
</mask>
<g mask="url(#mask0)">
<path fill-rule="evenodd" clip-rule="evenodd" d="M51.7484 27.3332C52.4337 27.4274 53.044 27.7272 53.5382 28.1604C53.5849 27.4252 53.612 26.6824 53.612 25.934C53.612 19.8722 52.069 14.1267 49.2646 9.75998C47.6351 7.22062 45.632 5.27416 43.3764 3.98782C43.2593 5.14408 42.6405 6.1404 41.7542 6.73958C47.4837 9.88032 50.5243 18.0998 50.5243 25.934C50.5243 26.4273 50.5095 26.9159 50.4861 27.4029C50.8894 27.3024 51.3145 27.2728 51.7484 27.3332Z" fill="#2B3237"/>
<path fill-rule="evenodd" clip-rule="evenodd" d="M27.8936 53.2766C28.0081 53.2766 28.1252 53.2766 28.2422 53.2754C28.4739 53.2741 28.702 53.2471 28.9213 53.1993C35.7884 52.8949 41.4844 51.005 45.9022 47.5657C46.2449 47.2996 46.5825 47.0256 46.9104 46.7397C51.2789 42.9278 53.9993 37.6515 54.7746 31.4778C54.9387 30.1757 54.4319 28.9447 53.5383 28.1605C53.0441 27.7272 52.4338 27.4287 51.7497 27.3332C51.3146 27.2729 50.8895 27.3024 50.4875 27.4017C49.1057 27.7429 48 28.946 47.8028 30.5107C46.5652 40.3527 38.8341 45.9482 26.6127 45.8574C26.6042 45.8574 26.5966 45.8574 26.5881 45.8574C26.567 45.8574 26.5461 45.8609 26.5253 45.8609C15.2714 45.4474 8.18377 39.9282 7.00265 30.5427C6.80543 28.9764 5.70099 27.7749 4.3195 27.4337C3.91622 27.3344 3.49086 27.3049 3.05729 27.3649C2.37191 27.4595 1.76163 27.7589 1.26747 28.1909C0.373821 28.9764 -0.132958 30.2075 0.0311298 31.5098C0.80392 37.6575 3.50569 42.9165 7.84455 46.724C7.86191 46.7397 7.878 46.7557 7.89535 46.7705C12.8442 51.0882 19.5708 53.2766 27.8936 53.2766Z" fill="#E0DCD3"/>
</g>
<path fill-rule="evenodd" clip-rule="evenodd" d="M12.6875 6.89888C13.2432 7.2734 13.9027 7.49428 14.6127 7.49428C16.5824 7.49428 19.9648 5.81646 19.9648 3.74714C19.9648 1.67782 16.5824 0 14.6127 0C12.6418 0 11.0444 1.67782 11.0444 3.74714C11.0444 3.88225 11.0517 4.0161 11.0653 4.14837C11.1823 5.30337 11.8011 6.30127 12.6875 6.89888Z" fill="#E6A123"/>
<path fill-rule="evenodd" clip-rule="evenodd" d="M43.6095 4.14837C43.6231 4.01704 43.6304 3.88319 43.6304 3.74714C43.6304 1.67782 42.033 0 40.063 0C38.0921 0 34.7109 1.67782 34.7109 3.74714C34.7109 5.81646 38.0921 7.49397 40.063 7.49397C40.7721 7.49397 41.4313 7.27434 41.9873 6.89888C42.8737 6.30095 43.4925 5.30463 43.6095 4.14837Z" fill="#E6A123"/>
<path fill-rule="evenodd" clip-rule="evenodd" d="M84.7644 30.7916C78.033 30.7916 72.5774 36.225 72.5774 42.9263C72.5774 44.5438 72.898 46.0855 73.4748 47.4969C73.9235 48.5966 74.53 49.614 75.2659 50.5249C77.4994 53.2898 80.9235 55.061 84.7644 55.061C91.4945 55.061 96.9514 49.6275 96.9514 42.9263C96.9514 36.225 91.4945 30.7916 84.7644 30.7916ZM84.7644 52.8713C79.2485 52.8713 74.7765 48.4185 74.7765 42.9263C74.7765 37.4341 79.2485 32.9812 84.7644 32.9812C90.2793 32.9812 94.7513 37.4341 94.7513 42.9263C94.7513 48.4185 90.2806 52.8713 84.7644 52.8713Z" fill="#E0DCD3"/>
<path fill-rule="evenodd" clip-rule="evenodd" d="M84.7743 32.991C79.2584 32.991 74.7864 37.4438 74.7864 42.936C74.7864 48.4282 79.2584 52.8798 84.7743 52.8798C90.2892 52.8798 94.7612 48.4282 94.7612 42.936C94.7612 37.4438 90.2905 32.991 84.7743 32.991ZM84.7743 47.6465C82.1612 47.6465 80.0422 45.5379 80.0422 42.936C80.0422 40.3341 82.1612 38.2255 84.7743 38.2255C87.3864 38.2255 89.5051 40.3341 89.5051 42.936C89.5051 45.5379 87.3864 47.6465 84.7743 47.6465Z" fill="#F7F1E6"/>
<path fill-rule="evenodd" clip-rule="evenodd" d="M89.7111 42.9347C89.7111 45.6497 87.4997 47.8513 84.773 47.8513C82.0453 47.8513 79.8352 45.6497 79.8352 42.9347C79.8352 40.2185 82.0453 38.0181 84.773 38.0181C87.4997 38.0181 89.7111 40.2185 89.7111 42.9347Z" fill="#2B3237"/>
</svg>
