<svg width="120" height="120" viewBox="0 0 120 120" fill="none" xmlns="http://www.w3.org/2000/svg">
<rect x="2" y="35.5714" width="116" height="66.2857" fill="#56B46F"/>
<path d="M109.714 35.5714H6.14307V27.2857L109.714 35.5714Z" fill="#74BE86"/>
<path d="M86.9284 68.7143C86.9284 83.5871 74.8727 95.6429 59.9999 95.6429C45.127 95.6429 33.0713 83.5871 33.0713 68.7143C33.0713 53.8414 45.127 41.7857 59.9999 41.7857C74.8727 41.7857 86.9284 53.8414 86.9284 68.7143Z" fill="#4D8157"/>
<path d="M45.6945 91.5C38.1214 86.7336 33.0712 78.3236 33.0712 68.7143C33.0712 59.1049 38.1214 50.6949 45.6945 45.9286H24.7337C24.7648 46.2704 24.7855 46.6142 24.7855 46.9643C24.7855 53.2573 19.6836 58.3571 13.3926 58.3571C13.0426 58.3571 12.6987 58.3364 12.3569 58.3054V79.1232C12.6987 79.0921 13.0426 79.0714 13.3926 79.0714C19.6836 79.0714 24.7855 84.1713 24.7855 90.4643C24.7855 90.8144 24.7648 91.1582 24.7337 91.5H45.6945Z" fill="#E0DCD3"/>
<path d="M106.607 58.3571C100.314 58.3571 95.2137 53.2573 95.2137 46.9643C95.2137 46.6142 95.2344 46.2704 95.2655 45.9286H74.3047C81.8778 50.6949 86.928 59.1049 86.928 68.7143C86.928 78.3236 81.8778 86.7336 74.3047 91.5H95.2655C95.2344 91.1582 95.2137 90.8144 95.2137 90.4643C95.2137 84.1713 100.314 79.0714 106.607 79.0714C106.957 79.0714 107.3 79.0921 107.642 79.1232V58.3054C107.3 58.3364 106.957 58.3571 106.607 58.3571Z" fill="#E0DCD3"/>
<path d="M13.3929 52.1429C10.5364 52.1429 8.21436 49.8208 8.21436 46.9643C8.21436 44.1078 10.5364 41.7857 13.3929 41.7857C16.2494 41.7857 18.5715 44.1078 18.5715 46.9643C18.5715 49.8208 16.2494 52.1429 13.3929 52.1429Z" fill="#E0DCD3"/>
<path d="M106.607 52.1429C103.751 52.1429 101.429 49.8208 101.429 46.9643C101.429 44.1078 103.751 41.7857 106.607 41.7857C109.464 41.7857 111.786 44.1078 111.786 46.9643C111.786 49.8208 109.464 52.1429 106.607 52.1429Z" fill="#E0DCD3"/>
<path d="M13.3929 95.6428C10.5364 95.6428 8.21436 93.3208 8.21436 90.4643C8.21436 87.6078 10.5364 85.2857 13.3929 85.2857C16.2494 85.2857 18.5715 87.6078 18.5715 90.4643C18.5715 93.3208 16.2494 95.6428 13.3929 95.6428Z" fill="#E0DCD3"/>
<path d="M106.607 95.6428C103.751 95.6428 101.429 93.3208 101.429 90.4643C101.429 87.6078 103.751 85.2857 106.607 85.2857C109.464 85.2857 111.786 87.6078 111.786 90.4643C111.786 93.3208 109.464 95.6428 106.607 95.6428Z" fill="#E0DCD3"/>
<path d="M12.3569 19V27.7829L109.714 35.5714H115.928L12.3569 19Z" fill="#83C38E"/>
<path d="M71.5342 74.9803C73.0049 74.5246 74.0862 73.1658 74.0862 71.55V69.7479C74.0862 68.3663 73.2908 67.1731 72.1432 66.5683C71.3478 59.7864 66.8652 57.0418 59.6587 57.0418C59.319 57.0418 58.9834 57.0542 58.6561 57.0811C56.2056 57.2758 53.7282 56.816 51.692 55.4426C50.8448 54.8709 50.1322 54.266 49.6309 53.628C49.401 53.338 48.9432 53.5224 48.9867 53.8911C49.0592 54.5208 49.1649 55.2583 49.3264 56.062C49.9209 59.0552 49.5646 58.6181 48.4067 61.4435C47.7666 63.0054 47.3544 64.7392 47.1618 66.5745C46.0225 67.1835 45.2312 68.3704 45.2312 69.7479V71.55C45.2312 73.1658 46.3146 74.5246 47.7832 74.9803C48.7589 78.6302 50.7619 81.5488 54.2481 83.0506V85.1158C54.2481 85.644 53.9478 86.1246 53.4755 86.3587L46.5134 89.789C45.9106 90.1163 45.4135 90.5658 44.9702 91.0608C49.2622 93.9525 54.4346 95.6428 60.0005 95.6428C65.3593 95.6428 70.3411 94.0582 74.5357 91.3591C74.0199 90.7335 73.3716 90.2115 72.6176 89.8345L65.8254 86.3628C65.3614 86.1267 65.0693 85.6503 65.0693 85.1303V83.0506C68.5555 81.5488 70.5586 78.6302 71.5342 74.9803Z" fill="#E0DCD3"/>
</svg>
