<svg width="88" height="104" viewBox="0 0 88 104" fill="none" xmlns="http://www.w3.org/2000/svg">
<path fill-rule="evenodd" clip-rule="evenodd" d="M80.9119 0H70.4236V104H80.9119C84.7736 104 87.9046 100.788 87.9046 96.8272V7.1718C87.9046 3.21139 84.7736 0 80.9119 0Z" fill="#2B3237"/>
<path fill-rule="evenodd" clip-rule="evenodd" d="M73.9205 0H63.4314V104H73.9205C77.7824 104 80.9125 100.788 80.9125 96.8272V7.1718C80.9125 3.21139 77.7824 0 73.9205 0Z" fill="#C3BFB8"/>
<path fill-rule="evenodd" clip-rule="evenodd" d="M0 0H66.8795C70.7678 0 73.9199 3.21139 73.9199 7.1718V96.8272C73.9199 100.788 70.7678 104 66.8795 104H0V0Z" fill="#E0DCD3"/>
<path fill-rule="evenodd" clip-rule="evenodd" d="M28.4692 92H45.9503V78H28.4692V92Z" fill="#E6A123"/>
<path fill-rule="evenodd" clip-rule="evenodd" d="M28.4692 86.5H33.9633V83H28.4692V86.5Z" fill="#FAFCFC"/>
<path fill-rule="evenodd" clip-rule="evenodd" d="M40.9556 86.5H46.4496V83H40.9556V86.5Z" fill="#FAFCFC"/>
<path fill-rule="evenodd" clip-rule="evenodd" d="M37.2097 11C21.6239 11 8.99023 23.6472 8.99023 39.2505C8.99023 54.8528 21.6239 67.5 37.2097 67.5C52.7964 67.5 65.4291 54.8528 65.4291 39.2505C65.4116 23.6559 52.7876 11.0175 37.2097 11ZM47.0864 21.5943H38.9734V14.6212C40.8884 14.7492 42.783 15.1 44.6172 15.6702C45.5595 17.5931 46.3849 19.5707 47.0864 21.5943ZM49.4151 17.7856C51.2509 18.8344 52.9457 20.1147 54.4577 21.5943H50.7907C50.3761 20.31 49.9145 19.0404 49.4083 17.7856H49.4151ZM35.4457 41.0153V53.3753H26.2568C25.1614 49.341 24.5407 45.1933 24.4051 41.0153H35.4457ZM24.4051 37.4849C24.5407 33.3069 25.1614 29.1592 26.2568 25.1248H35.4457V37.4849H24.4051ZM38.9734 41.0153H50.0149C49.8783 45.1933 49.258 49.341 48.1623 53.3753H38.9734V41.0153ZM38.9734 37.4849V25.1248H48.1623C49.258 29.1592 49.8783 33.3069 50.0149 37.4849H38.9734ZM35.4457 21.5943H27.3329C28.0342 19.5707 28.8606 17.5931 29.8022 15.6702C31.6361 15.1 33.5306 14.7482 35.4457 14.6212V21.5943ZM23.6287 21.5943H19.9604C21.4756 20.1147 23.1721 18.8344 25.01 17.7856C24.5038 19.0404 24.0432 20.31 23.6287 21.5943ZM22.6082 25.1248C21.5847 29.17 21.0043 33.3137 20.8774 37.4849H12.6056C12.9158 33.0442 14.424 28.7734 16.9732 25.1248H22.6082ZM20.8774 41.0153C21.0043 45.1863 21.5847 49.3303 22.6082 53.3753H16.9742C14.426 49.7268 12.9178 45.4558 12.6076 41.0153H20.8774ZM23.6287 56.9067C24.0432 58.19 24.5038 59.4596 25.01 60.7146C23.1721 59.6656 21.4756 58.3853 19.9624 56.9067H23.6287ZM27.3329 56.9067H35.4457V63.8788C33.5306 63.7518 31.6361 63.4003 29.8022 62.83C28.8606 60.9069 28.0352 58.9293 27.3329 56.9067ZM38.9734 56.9067H47.0864C46.3849 58.9293 45.5595 60.9069 44.6172 62.83C42.783 63.4003 40.8884 63.7518 38.9734 63.8788V56.9067ZM50.7907 56.9067H54.4587C52.9437 58.3863 51.2472 59.6656 49.4091 60.7146C49.9155 59.4596 50.3761 58.19 50.7907 56.9067ZM51.8121 53.3753C52.8343 49.3303 53.415 45.1863 53.5416 41.0163H61.8135C61.5033 45.4558 59.9951 49.7276 57.4469 53.3753H51.8121ZM53.5416 37.4849C53.415 33.3137 52.8343 29.17 51.8121 25.1248H57.4557C60.0038 28.7734 61.5121 33.0442 61.8225 37.4849H53.5416Z" fill="#2B3237"/>
</svg>
