<svg width="120" height="120" viewBox="0 0 120 120" fill="none" xmlns="http://www.w3.org/2000/svg">
<path fill-rule="evenodd" clip-rule="evenodd" d="M35.7868 23.7929H84.0112C89.7198 23.7929 94.3458 28.4239 94.3458 34.1383V77.2413C94.3458 82.9547 89.7198 87.5858 84.0112 87.5858H35.7868C30.0784 87.5858 25.4521 82.9547 25.4521 77.2413V34.1383C25.4521 28.4239 30.0784 23.7929 35.7868 23.7929Z" fill="#3582BD"/>
<path fill-rule="evenodd" clip-rule="evenodd" d="M56.4536 23.7929H63.3434V10H56.4536V23.7929Z" fill="#E0DCD3"/>
<path fill-rule="evenodd" clip-rule="evenodd" d="M35.7861 23.7929H44.3975V10H35.7861V23.7929Z" fill="#E0DCD3"/>
<path fill-rule="evenodd" clip-rule="evenodd" d="M75.3999 23.7929H84.012V10H75.3999V23.7929Z" fill="#E0DCD3"/>
<path fill-rule="evenodd" clip-rule="evenodd" d="M25.4521 96.2061V53.103C25.4521 47.3894 30.0784 42.7586 35.7868 42.7586H84.0121C89.7198 42.7586 94.3458 47.3894 94.3458 53.103V96.2068C94.3458 103.824 88.1762 110 80.5673 110H39.2307C31.6217 110 25.4521 103.824 25.4521 96.2061Z" fill="#4398D1"/>
<path fill-rule="evenodd" clip-rule="evenodd" d="M25.3258 97.0786L35.5119 57.424C36.6865 52.8513 40.805 49.6555 45.5207 49.6555H74.2831C78.9986 49.6555 83.1171 52.8513 84.2919 57.424L94.4777 97.0786C95.8981 102.612 92.5696 108.251 87.0422 109.674C86.2 109.891 85.3321 110 84.4624 110H35.3346C29.6263 110 25 105.369 25 99.6545C25.001 98.7856 25.1105 97.9206 25.3258 97.0786Z" fill="#87CED9"/>
<path fill-rule="evenodd" clip-rule="evenodd" d="M63.3429 75.1357V72.8354C66.6202 70.9633 67.7587 66.7864 65.8886 63.5046C65.2825 62.4424 64.4043 61.563 63.3429 60.9566V56.5515H56.4531V60.9566C53.1761 62.8296 52.0376 67.0066 53.9077 70.2871C54.5145 71.3496 55.3927 72.229 56.4531 72.8354V75.1357C54.3267 77.0412 54.1438 80.3102 56.0473 82.4389C57.9499 84.5685 61.2155 84.7516 63.3429 82.8461C65.4703 80.9406 65.6532 77.6723 63.7497 75.5429C63.6221 75.3998 63.4858 75.2634 63.3429 75.1357Z" fill="#126099"/>
<path fill-rule="evenodd" clip-rule="evenodd" d="M42.6758 84.1374V89.31H34.0645V96.2062H42.6758V101.379H49.5655V84.1374H42.6758Z" fill="#126099"/>
<path fill-rule="evenodd" clip-rule="evenodd" d="M77.1212 84.1374V89.31H85.7325V96.2062H77.1212V101.379H70.2314V84.1374H77.1212Z" fill="#126099"/>
<path fill-rule="evenodd" clip-rule="evenodd" d="M63.3434 92.7584C63.3434 94.6629 61.801 96.2061 59.8985 96.2061C57.9959 96.2061 56.4536 94.6629 56.4536 92.7584C56.4536 90.8541 57.9959 89.3099 59.8985 89.3099C61.801 89.3099 63.3434 90.8541 63.3434 92.7584Z" fill="#146AA8"/>
<path fill-rule="evenodd" clip-rule="evenodd" d="M63.3434 101.379C63.3434 103.283 61.801 104.827 59.8985 104.827C57.9959 104.827 56.4536 103.283 56.4536 101.379C56.4536 99.4742 57.9959 97.9302 59.8985 97.9302C61.801 97.9302 63.3434 99.4742 63.3434 101.379Z" fill="#146AA8"/>
</svg>
