<svg width="120" height="120" viewBox="0 0 120 120" fill="none" xmlns="http://www.w3.org/2000/svg">
<path d="M33.7202 10H110.106V105.014H33.7202V10Z" fill="#C3BFB8"/>
<path d="M98.6711 25.4427H45.1556C44.2138 25.4427 43.4502 24.683 43.4502 23.7452C43.4502 22.8073 44.2136 22.0476 45.1556 22.0476H98.6711C99.6128 22.0476 100.376 22.8073 100.376 23.7452C100.376 24.683 99.613 25.4427 98.6711 25.4427Z" fill="#656B6F"/>
<path d="M98.6711 33.2529H78.6243C77.6824 33.2529 76.9189 32.4932 76.9189 31.5553C76.9189 30.6175 77.6822 29.8578 78.6243 29.8578H98.6711C99.6128 29.8578 100.376 30.6175 100.376 31.5553C100.376 32.4932 99.613 33.2529 98.6711 33.2529Z" fill="#656B6F"/>
<path d="M73.4788 33.2529H45.1556C44.2138 33.2529 43.4502 32.4932 43.4502 31.5553C43.4502 30.6175 44.2136 29.8578 45.1556 29.8578H73.4788C74.4207 29.8578 75.1841 30.6175 75.1841 31.5553C75.1841 32.4932 74.4207 33.2529 73.4788 33.2529Z" fill="#656B6F"/>
<path d="M98.6711 41.0638H45.1556C44.2138 41.0638 43.4502 40.3041 43.4502 39.3663C43.4502 38.4284 44.2136 37.6687 45.1556 37.6687H98.6711C99.6128 37.6687 100.376 38.4284 100.376 39.3663C100.376 40.3041 99.613 41.0638 98.6711 41.0638Z" fill="#656B6F"/>
<path d="M98.6707 48.8741H86.4539C85.512 48.8741 84.7485 48.1144 84.7485 47.1766C84.7485 46.2387 85.5118 45.479 86.4539 45.479H98.6707C99.6125 45.479 100.376 46.2387 100.376 47.1766C100.376 48.1142 99.6126 48.8741 98.6707 48.8741Z" fill="#656B6F"/>
<path d="M81.3091 48.8741H45.1556C44.2138 48.8741 43.4502 48.1144 43.4502 47.1766C43.4502 46.2387 44.2136 45.479 45.1556 45.479H81.3091C82.2511 45.479 83.0145 46.2387 83.0145 47.1766C83.0143 48.1142 82.2509 48.8741 81.3091 48.8741Z" fill="#656B6F"/>
<path d="M98.6707 56.685H68.7806C67.8386 56.685 67.0752 55.9253 67.0752 54.9875C67.0752 54.0498 67.8384 53.2899 68.7806 53.2899H98.6705C99.6123 53.2899 100.376 54.0496 100.376 54.9875C100.376 55.9251 99.6127 56.685 98.6707 56.685Z" fill="#656B6F"/>
<path d="M63.8583 56.685H45.1546C44.2128 56.685 43.4492 55.9253 43.4492 54.9875C43.4492 54.0498 44.2126 53.2899 45.1546 53.2899H63.8583C64.8003 53.2899 65.5637 54.0496 65.5637 54.9875C65.5635 55.9251 64.8003 56.685 63.8583 56.685Z" fill="#656B6F"/>
<path d="M88.648 64.4951H45.1556C44.2138 64.4951 43.4502 63.7353 43.4502 62.7975C43.4502 61.8599 44.2136 61.1 45.1556 61.1H88.648C89.5899 61.1 90.3534 61.8597 90.3534 62.7975C90.3534 63.7353 89.5899 64.4951 88.648 64.4951Z" fill="#656B6F"/>
<path d="M98.671 72.3054H66.5311C65.5893 72.3054 64.8257 71.5456 64.8257 70.6078C64.8257 69.67 65.5891 68.9103 66.5311 68.9103H98.671C99.6128 68.9103 100.376 69.67 100.376 70.6078C100.376 71.5456 99.6129 72.3054 98.671 72.3054Z" fill="#656B6F"/>
<path d="M60.2673 72.3054H45.1556C44.2138 72.3054 43.4502 71.5456 43.4502 70.6078C43.4502 69.67 44.2136 68.9103 45.1556 68.9103H60.2673C61.2092 68.9103 61.9727 69.67 61.9727 70.6078C61.9727 71.5456 61.2091 72.3054 60.2673 72.3054Z" fill="#656B6F"/>
<path d="M98.6708 80.1156H81.3089C80.3669 80.1156 79.6035 79.3558 79.6035 78.418C79.6035 77.4804 80.3667 76.7205 81.3089 76.7205H98.6708C99.6126 76.7205 100.376 77.4802 100.376 78.418C100.376 79.3558 99.6128 80.1156 98.6708 80.1156Z" fill="#656B6F"/>
<path d="M75.1818 80.1156H45.1556C44.2138 80.1156 43.4502 79.3558 43.4502 78.418C43.4502 77.4804 44.2136 76.7205 45.1556 76.7205H75.1818C76.1237 76.7205 76.8871 77.4802 76.8871 78.418C76.8871 79.3558 76.1237 80.1156 75.1818 80.1156Z" fill="#656B6F"/>
<path d="M98.6711 87.9261H45.1556C44.2138 87.9261 43.4502 87.1664 43.4502 86.2286C43.4502 85.2909 44.2136 84.531 45.1556 84.531H98.6711C99.6128 84.531 100.376 85.2907 100.376 86.2286C100.376 87.1662 99.613 87.9261 98.6711 87.9261Z" fill="#656B6F"/>
<path d="M78.6243 95.7363H45.1556C44.2138 95.7363 43.4502 94.9766 43.4502 94.0387C43.4502 93.1009 44.2136 92.3412 45.1556 92.3412H78.6243C79.5662 92.3412 80.3297 93.1009 80.3297 94.0387C80.3295 94.9764 79.5662 95.7363 78.6243 95.7363Z" fill="#656B6F"/>
<rect x="9" y="14.9863" width="76.3861" height="95.0137" fill="#E0DCD3"/>
<path d="M73.9509 30.429H20.4353C19.4936 30.429 18.73 29.6691 18.73 28.7315C18.73 27.7939 19.4934 27.0339 20.4353 27.0339H73.9509C74.8928 27.0339 75.6562 27.7937 75.6562 28.7315C75.656 29.6689 74.8928 30.429 73.9509 30.429Z" fill="#2B3237"/>
<path d="M73.9509 46.05H20.4353C19.4936 46.05 18.73 45.2903 18.73 44.3525C18.73 43.4148 19.4934 42.6549 20.4353 42.6549H73.9509C74.8928 42.6549 75.6562 43.4146 75.6562 44.3525C75.656 45.2901 74.8928 46.05 73.9509 46.05Z" fill="#656B6F"/>
<path d="M73.951 53.8604H61.7342C60.7922 53.8604 60.0288 53.1007 60.0288 52.1629C60.0288 51.2251 60.792 50.4653 61.7342 50.4653H73.951C74.8929 50.4653 75.6563 51.2251 75.6563 52.1629C75.6563 53.1007 74.8929 53.8604 73.951 53.8604Z" fill="#656B6F"/>
<path d="M56.5887 53.8604H20.4353C19.4936 53.8604 18.73 53.1007 18.73 52.1629C18.73 51.2251 19.4934 50.4653 20.4353 50.4653H56.5889C57.5307 50.4653 58.2943 51.2251 58.2943 52.1629C58.2943 53.1007 57.5307 53.8604 56.5887 53.8604Z" fill="#656B6F"/>
<path d="M73.9515 61.6711H44.0613C43.1196 61.6711 42.356 60.9114 42.356 59.9736C42.356 59.0359 43.1194 58.276 44.0613 58.276H73.9513C74.8932 58.276 75.6567 59.0357 75.6567 59.9736C75.6567 60.911 74.8934 61.6711 73.9515 61.6711Z" fill="#656B6F"/>
<path d="M39.1391 61.6711H20.4353C19.4936 61.6711 18.73 60.9114 18.73 59.9736C18.73 59.0359 19.4934 58.276 20.4353 58.276H39.1391C40.0809 58.276 40.8445 59.0357 40.8445 59.9736C40.8443 60.911 40.0809 61.6711 39.1391 61.6711Z" fill="#656B6F"/>
<path d="M73.9514 77.2917H41.8118C40.8701 77.2917 40.1064 76.5318 40.1064 75.5942C40.1064 74.6565 40.8699 73.8966 41.8118 73.8966H73.9516C74.8935 73.8966 75.6569 74.6563 75.6569 75.5942C75.6565 76.5318 74.8933 77.2917 73.9514 77.2917Z" fill="#656B6F"/>
<path d="M35.5473 77.2917H20.4353C19.4936 77.2917 18.73 76.5318 18.73 75.5942C18.73 74.6565 19.4934 73.8966 20.4353 73.8966H35.5473C36.489 73.8966 37.2527 74.6563 37.2527 75.5942C37.2525 76.5318 36.489 77.2917 35.5473 77.2917Z" fill="#656B6F"/>
<path d="M73.9511 85.1018H56.5892C55.6474 85.1018 54.8838 84.342 54.8838 83.4042C54.8838 82.4664 55.6472 81.7067 56.5892 81.7067H73.9511C74.893 81.7067 75.6565 82.4664 75.6565 83.4042C75.6563 84.342 74.893 85.1018 73.9511 85.1018Z" fill="#656B6F"/>
<path d="M50.4618 85.1018H20.4353C19.4936 85.1018 18.73 84.342 18.73 83.4042C18.73 82.4664 19.4934 81.7067 20.4353 81.7067H50.4618C51.4035 81.7067 52.1671 82.4664 52.1671 83.4042C52.1671 84.342 51.4035 85.1018 50.4618 85.1018Z" fill="#656B6F"/>
<path d="M73.9509 92.9122H20.4353C19.4936 92.9122 18.73 92.1523 18.73 91.2146C18.73 90.277 19.4934 89.5171 20.4353 89.5171H73.9509C74.8928 89.5171 75.6562 90.2768 75.6562 91.2146C75.656 92.1523 74.8928 92.9122 73.9509 92.9122Z" fill="#656B6F"/>
<path d="M53.9043 100.722H20.4353C19.4936 100.722 18.73 99.9626 18.73 99.0248C18.73 98.0872 19.4934 97.3273 20.4353 97.3273H53.9043C54.846 97.3273 55.6097 98.087 55.6097 99.0248C55.6095 99.9622 54.846 100.722 53.9043 100.722Z" fill="#656B6F"/>
</svg>
