<svg width="92" height="25" viewBox="0 0 92 25" fill="none" xmlns="http://www.w3.org/2000/svg">
<path d="M29.112 5.77598C30.376 5.77598 31.504 6.06398 32.496 6.63998C33.504 7.19998 34.288 7.98398 34.848 8.99198C35.424 9.99998 35.712 11.152 35.712 12.448V17.632C35.712 18.896 35.432 20.048 34.872 21.088C34.312 22.128 33.52 22.944 32.496 23.536C31.488 24.144 30.344 24.448 29.064 24.448C27.912 24.448 26.84 24.216 25.848 23.752C24.856 23.304 24.024 22.656 23.352 21.808C23.176 21.584 23.088 21.36 23.088 21.136C23.088 20.8 23.256 20.512 23.592 20.272C23.816 20.128 24.04 20.056 24.264 20.056C24.664 20.056 24.992 20.224 25.248 20.56C25.68 21.12 26.224 21.544 26.88 21.832C27.536 22.136 28.28 22.288 29.112 22.288C29.896 22.288 30.608 22.096 31.248 21.712C31.888 21.344 32.4 20.792 32.784 20.056C33.168 19.336 33.36 18.472 33.36 17.464V16.288C32.864 17.168 32.208 17.856 31.392 18.352C30.576 18.848 29.656 19.096 28.632 19.096C27.448 19.096 26.384 18.816 25.44 18.256C24.512 17.68 23.784 16.888 23.256 15.88C22.744 14.872 22.488 13.728 22.488 12.448C22.488 11.152 22.768 9.99998 23.328 8.99198C23.888 7.98398 24.672 7.19998 25.68 6.63998C26.688 6.06398 27.832 5.77598 29.112 5.77598ZM29.112 16.936C29.928 16.936 30.656 16.744 31.296 16.36C31.952 15.976 32.456 15.448 32.808 14.776C33.176 14.088 33.36 13.312 33.36 12.448C33.36 11.584 33.176 10.808 32.808 10.12C32.456 9.43198 31.952 8.89598 31.296 8.51198C30.656 8.12798 29.928 7.93598 29.112 7.93598C28.296 7.93598 27.56 8.12798 26.904 8.51198C26.264 8.89598 25.76 9.43198 25.392 10.12C25.024 10.808 24.84 11.584 24.84 12.448C24.84 13.312 25.024 14.088 25.392 14.776C25.76 15.448 26.264 15.976 26.904 16.36C27.56 16.744 28.296 16.936 29.112 16.936Z" fill="#1D3F9D"/>
<path d="M50.1793 5.84798C50.5473 5.84798 50.8433 5.95998 51.0673 6.18398C51.2913 6.40798 51.4033 6.70398 51.4033 7.07198V17.776C51.4033 18.128 51.2913 18.424 51.0673 18.664C50.8433 18.888 50.5473 19 50.1793 19C49.8274 19 49.5314 18.888 49.2913 18.664C49.0673 18.424 48.9553 18.128 48.9553 17.776V17.512C48.4433 18.024 47.8353 18.424 47.1313 18.712C46.4273 18.984 45.6753 19.12 44.8753 19.12C43.7713 19.12 42.7793 18.88 41.8993 18.4C41.0193 17.92 40.3313 17.224 39.8353 16.312C39.3393 15.384 39.0913 14.272 39.0913 12.976V7.07198C39.0913 6.71998 39.2033 6.43198 39.4273 6.20798C39.6673 5.96798 39.9633 5.84798 40.3153 5.84798C40.6673 5.84798 40.9553 5.96798 41.1793 6.20798C41.4193 6.43198 41.5393 6.71998 41.5393 7.07198V12.976C41.5393 14.272 41.8833 15.256 42.5713 15.928C43.2753 16.584 44.2033 16.912 45.3553 16.912C46.0273 16.912 46.6354 16.776 47.1793 16.504C47.7394 16.232 48.1713 15.864 48.4753 15.4C48.7953 14.936 48.9553 14.416 48.9553 13.84V7.07198C48.9553 6.70398 49.0673 6.40798 49.2913 6.18398C49.5314 5.95998 49.8274 5.84798 50.1793 5.84798Z" fill="#1D3F9D"/>
<path d="M55.9547 7.09598C55.9547 6.72798 56.0667 6.43198 56.2907 6.20798C56.5307 5.98398 56.8267 5.87198 57.1787 5.87198C57.5467 5.87198 57.8427 5.98398 58.0667 6.20798C58.2907 6.43198 58.4027 6.72798 58.4027 7.09598V17.776C58.4027 18.128 58.2907 18.424 58.0667 18.664C57.8427 18.888 57.5467 19 57.1787 19C56.8267 19 56.5307 18.888 56.2907 18.664C56.0667 18.424 55.9547 18.128 55.9547 17.776V7.09598ZM57.1787 0.567982C57.6107 0.567982 57.9787 0.727982 58.2827 1.04798C58.6027 1.35198 58.7627 1.71998 58.7627 2.15198C58.7627 2.58398 58.6027 2.95998 58.2827 3.27998C57.9787 3.58398 57.6107 3.73598 57.1787 3.73598C56.7467 3.73598 56.3707 3.58398 56.0507 3.27998C55.7467 2.95998 55.5947 2.58398 55.5947 2.15198C55.5947 1.71998 55.7467 1.35198 56.0507 1.04798C56.3707 0.727982 56.7467 0.567982 57.1787 0.567982Z" fill="#1D3F9D"/>
<path d="M74.2849 0.255981C74.6529 0.255981 74.9489 0.367981 75.1729 0.591981C75.3969 0.815981 75.5089 1.11198 75.5089 1.47998V12.424C75.5089 13.672 75.2129 14.808 74.6209 15.832C74.0449 16.84 73.2529 17.64 72.2449 18.232C71.2529 18.808 70.1409 19.096 68.9089 19.096C67.6769 19.096 66.5489 18.808 65.5249 18.232C64.5169 17.64 63.7249 16.84 63.1489 15.832C62.5729 14.808 62.2849 13.672 62.2849 12.424C62.2849 11.176 62.5489 10.048 63.0769 9.03998C63.6209 8.01598 64.3569 7.21598 65.2849 6.63998C66.2289 6.06398 67.2769 5.77598 68.4289 5.77598C69.3569 5.77598 70.2209 5.96798 71.0209 6.35198C71.8209 6.73598 72.5009 7.27198 73.0609 7.95998V1.47998C73.0609 1.11198 73.1729 0.815981 73.3969 0.591981C73.6369 0.367981 73.9329 0.255981 74.2849 0.255981ZM68.9089 16.936C69.7089 16.936 70.4289 16.744 71.0689 16.36C71.7249 15.96 72.2369 15.416 72.6049 14.728C72.9729 14.04 73.1569 13.272 73.1569 12.424C73.1569 11.576 72.9729 10.816 72.6049 10.144C72.2369 9.45598 71.7249 8.91998 71.0689 8.53598C70.4289 8.13598 69.7089 7.93598 68.9089 7.93598C68.1089 7.93598 67.3809 8.13598 66.7249 8.53598C66.0849 8.91998 65.5729 9.45598 65.1889 10.144C64.8209 10.816 64.6369 11.576 64.6369 12.424C64.6369 13.272 64.8209 14.04 65.1889 14.728C65.5729 15.416 66.0849 15.96 66.7249 16.36C67.3809 16.744 68.1089 16.936 68.9089 16.936Z" fill="#1D3F9D"/>
<path d="M91.6159 12.232C91.6159 12.536 91.5119 12.792 91.3039 13C91.0959 13.192 90.8319 13.288 90.5119 13.288H81.3919C81.5679 14.408 82.0719 15.312 82.9039 16C83.7519 16.688 84.7839 17.032 85.9999 17.032C86.4799 17.032 86.9759 16.944 87.4879 16.768C88.0159 16.592 88.4479 16.376 88.7839 16.12C89.0079 15.944 89.2719 15.856 89.5759 15.856C89.8799 15.856 90.1199 15.936 90.2959 16.096C90.5839 16.336 90.7279 16.608 90.7279 16.912C90.7279 17.2 90.5999 17.44 90.3439 17.632C89.7999 18.064 89.1199 18.416 88.3039 18.688C87.5039 18.96 86.7359 19.096 85.9999 19.096C84.6879 19.096 83.5119 18.816 82.4719 18.256C81.4319 17.68 80.6159 16.888 80.0239 15.88C79.4479 14.872 79.1599 13.728 79.1599 12.448C79.1599 11.168 79.4319 10.024 79.9759 9.01598C80.5359 7.99198 81.3039 7.19998 82.2799 6.63998C83.2719 6.06398 84.3919 5.77598 85.6399 5.77598C86.8719 5.77598 87.9359 6.04798 88.8319 6.59198C89.7279 7.13598 90.4159 7.89598 90.8959 8.87198C91.3759 9.84798 91.6159 10.968 91.6159 12.232ZM85.6399 7.83998C84.4719 7.83998 83.5199 8.15998 82.7839 8.79998C82.0639 9.43998 81.6079 10.296 81.4159 11.368H89.4079C89.2639 10.296 88.8639 9.43998 88.2079 8.79998C87.5519 8.15998 86.6959 7.83998 85.6399 7.83998Z" fill="#1D3F9D"/>
<path d="M16.375 18.1875C16.0298 18.1875 15.75 18.4673 15.75 18.8125C15.75 19.75 15.4161 19.75 15.2368 19.75C14.4056 19.75 13.9826 17.4482 13.6196 14.9263C14.0475 13.7077 14.3978 12.3241 14.6674 10.7813C15.1019 8.29541 15.154 6.34709 15.1561 6.26534C15.1645 5.92028 14.8917 5.63366 14.5466 5.62519C14.5413 5.62506 14.5362 5.625 14.5309 5.625C14.1929 5.625 13.9148 5.89481 13.9064 6.23466C13.9053 6.2795 13.8291 8.92462 13.173 11.8902C12.8111 9.98341 12.1675 8.38025 11.2932 7.21994C10.1988 5.76766 8.74666 5 7.09375 5C6.2455 5 5.42513 5.22263 4.65541 5.66166C3.92847 6.07631 3.27891 6.66547 2.72472 7.41281C1.61253 8.91272 1 10.8969 1 13C1 15.1031 1.61253 17.0873 2.72472 18.5872C3.27888 19.3345 3.92847 19.9237 4.65538 20.3383C5.42513 20.7774 6.2455 21 7.09375 21C7.75744 21 8.39175 20.896 8.97903 20.6908C9.30491 20.5769 9.47678 20.2204 9.36291 19.8946C9.249 19.5687 8.8925 19.3969 8.56672 19.5107C8.11231 19.6695 7.61669 19.75 7.09375 19.75C5.83588 19.75 4.64087 19.0726 3.72878 17.8426C2.77519 16.5566 2.25 14.8368 2.25 13C2.25 11.1632 2.77519 9.44338 3.72878 8.15738C4.64087 6.92738 5.83588 6.25 7.09375 6.25C8.35669 6.25 9.43372 6.82944 10.2949 7.97222C11.1627 9.12378 11.776 10.8173 12.0688 12.8695C12.1245 13.2599 12.1778 13.6437 12.2293 14.0149C12.2659 14.2787 12.3018 14.5372 12.3375 14.7905C11.9294 15.8953 11.4161 16.9411 10.7703 17.806C10.5638 18.0826 10.6207 18.4742 10.8973 18.6807C11.0095 18.7645 11.1407 18.8049 11.2707 18.8049C11.4612 18.8049 11.6493 18.7182 11.772 18.5538C12.1018 18.112 12.4096 17.6191 12.6952 17.0764C12.8085 17.6921 12.9325 18.2477 13.0782 18.7308C13.2476 19.292 13.7631 21 15.2368 21C16.0246 21 16.4453 20.5913 16.6595 20.2486C16.8854 19.887 17 19.4038 17 18.8125C17 18.4673 16.7202 18.1875 16.375 18.1875Z" fill="#1D3F9D" stroke="#1D3F9D" stroke-width="0.75"/>
</svg>
